<svg width="46" height="48" viewBox="0 0 46 48" fill="none" xmlns="http://www.w3.org/2000/svg">
<g clip-path="url(#clip0_3_177)">
<path fill-rule="evenodd" clip-rule="evenodd" d="M23.0001 3.97152C12.4143 3.97152 3.83339 12.8618 3.83339 23.8293C3.83339 34.7967 12.4143 43.6871 23.0001 43.6871C33.5858 43.6871 42.1667 34.7967 42.1667 23.8293C42.1667 12.8618 33.5858 3.97152 23.0001 3.97152ZM16.2917 18.8648C16.2917 17.9521 16.4652 17.0484 16.8024 16.2051C17.1395 15.3619 17.6336 14.5957 18.2566 13.9503C18.8795 13.3049 19.619 12.793 20.4329 12.4437C21.2468 12.0944 22.1191 11.9146 23.0001 11.9146C23.881 11.9146 24.7533 12.0944 25.5672 12.4437C26.3811 12.793 27.1206 13.3049 27.7436 13.9503C28.3665 14.5957 28.8606 15.3619 29.1978 16.2051C29.5349 17.0484 29.7084 17.9521 29.7084 18.8648C29.7084 20.7082 29.0016 22.476 27.7436 23.7794C26.4855 25.0828 24.7792 25.8151 23.0001 25.8151C21.2209 25.8151 19.5146 25.0828 18.2566 23.7794C16.9985 22.476 16.2917 20.7082 16.2917 18.8648ZM34.9946 33.7264C33.5598 35.5963 31.7359 37.1061 29.6589 38.1432C27.5819 39.1802 25.3056 39.7177 23.0001 39.7155C20.6945 39.7177 18.4182 39.1802 16.3412 38.1432C14.2643 37.1061 12.4403 35.5963 11.0056 33.7264C14.1125 31.4169 18.3521 29.7866 23.0001 29.7866C27.648 29.7866 31.8876 31.4169 34.9946 33.7264Z" fill="#F8F8FA"/>
</g>
<defs>
<clipPath id="clip0_3_177">
<rect width="45.6145" height="47.2593" fill="white" transform="scale(1.00845)"/>
</clipPath>
</defs>
</svg>
